# xmcd CD database file
# Copyright (C) 1997 Ti Kan
#
# Track frame offsets:
#  200
#  37270
#  74775
#  114410
#  141782
#  190930
#
# Disc length: 3060 seconds
#
# Revision: 1
# Processed by: cddbd v1.4b41PL1 Copyright (c) Steve Scherf et al.
# Submitted via: CDWizzard Release:4.32
#
DISCID=5d0bf206
DTITLE=Nels Cline - Angelica
DYEAR=1900
DGENRE=
TTITLE0=Angel of Death
TTITLE1=Maria Alone
TTITLE2=The Lung
TTITLE3=Bandoneon
TTITLE4=Fives and Sixes
TTITLE5=Jara
EXTD=
EXTT0=
EXTT1=
EXTT2=
EXTT3=
EXTT4=
EXTT5=
PLAYORDER=
